<svg id="Capa_1" enable-background="new 0 0 512 512" height="512" viewBox="0 0 512 512" width="512" xmlns="http://www.w3.org/2000/svg"><g><g><circle cx="256" cy="256" fill="#50e2ce" r="248.5"/><path d="m37.5 256c0-132.205 103.244-240.279 233.5-248.037-4.964-.295-9.962-.463-15-.463-137.243 0-248.5 111.257-248.5 248.5s111.257 248.5 248.5 248.5c5.038 0 10.036-.168 15-.463-130.256-7.758-233.5-115.832-233.5-248.037z" fill="#00ae8e"/><circle cx="256" cy="256" fill="#fff" r="191.345"/><path d="m94.655 256c0-100.628 77.68-183.111 176.345-190.763-4.95-.384-9.952-.583-15-.583-105.677.001-191.345 85.669-191.345 191.346s85.668 191.345 191.345 191.345c5.048 0 10.05-.199 15-.583-98.666-7.651-176.345-90.133-176.345-190.762z" fill="#d6d6d6"/><path d="m349.824 145.801-133.968 70.056-70.056 133.968c-5.508 10.532 5.842 21.882 16.374 16.375l133.968-70.056 70.056-133.968c5.508-10.533-5.842-21.883-16.374-16.375z" fill="#bd9cde"/><path d="m338.203 215.712c-8.944-18.176-23.74-32.971-41.915-41.916l-80.431 42.06-42.06 80.431c8.944 18.176 23.74 32.971 41.915 41.916l80.431-42.06z" fill="#996acc"/><circle cx="256" cy="256" fill="#ff89ca" r="61.558"/></g><g><path d="m256 512c68.38 0 132.667-26.629 181.019-74.98 48.353-48.353 74.981-112.64 74.981-181.02s-26.628-132.667-74.981-181.02c-48.352-48.351-112.639-74.98-181.019-74.98-52.053 0-102.164 15.546-144.917 44.958-3.413 2.348-4.275 7.018-1.928 10.43 2.347 3.413 7.017 4.276 10.43 1.928 40.241-27.683 87.412-42.316 136.415-42.316 64.374 0 124.894 25.068 170.413 70.587s70.587 106.039 70.587 170.413-25.068 124.894-70.587 170.413-106.039 70.587-170.413 70.587-124.894-25.068-170.413-70.587-70.587-106.039-70.587-170.413c0-69.032 29.702-134.873 81.489-180.639 3.104-2.743 3.396-7.483.653-10.587-2.742-3.104-7.482-3.396-10.586-.653-55.008 48.612-86.556 118.549-86.556 191.879 0 68.38 26.628 132.667 74.981 181.02 48.352 48.351 112.639 74.98 181.019 74.98z"/><path d="m399.738 382.511c3.213 2.615 7.937 2.13 10.551-1.083 28.732-35.303 44.556-79.847 44.556-125.429 0-109.644-89.202-198.845-198.845-198.845s-198.845 89.202-198.845 198.846 89.201 198.845 198.845 198.845c49.105 0 96.262-18.056 132.783-50.843 3.082-2.767 3.338-7.509.571-10.591-2.767-3.083-7.509-3.338-10.591-.571-33.765 30.312-77.363 47.005-122.763 47.005-101.373 0-183.845-82.473-183.845-183.845s82.472-183.845 183.845-183.845 183.845 82.472 183.845 183.845c0 42.143-14.628 83.325-41.19 115.96-2.614 3.213-2.13 7.936 1.083 10.551z"/><path d="m346.349 139.154c0 .001 0 .001 0 0l-91.437 47.815c-37.214.58-67.364 30.729-67.943 67.943l-47.814 91.436c-8.917 17.051 9.463 35.404 26.496 26.497l91.436-47.814c37.214-.58 67.364-30.729 67.944-67.944l47.814-91.436c8.906-17.029-9.44-35.415-26.496-26.497zm-187.649 220.399c-4.016 2.101-8.377-2.192-6.253-6.253l38.596-73.808c7.027 19.465 22.694 34.687 41.465 41.465zm83.692-51.232c-18.891-4.917-33.794-19.819-38.712-38.71-10.346-40.014 26.142-76.218 65.927-65.933 23.29 6.061 40.452 27.269 40.452 52.321-.001 29.809-33.095 61.259-67.667 52.322zm117.16-149.621-38.596 73.808c-6.919-19.164-22.411-34.586-41.465-41.465l73.808-38.596c4.016-2.1 8.378 2.19 6.253 6.253z"/></g></g></svg>