<svg height="512pt" viewBox="0 -17 512.00022 512" width="512pt" xmlns="http://www.w3.org/2000/svg"><path d="m261.890625 292.292969-9.582031 34.957031c-1.253906 4.566406-4.824219 8.136719-9.390625 9.390625l-27.589844 7.5625c-4.566406 1.25-8.136719 4.820313-9.390625 9.390625l-7.5625 27.585938c-1.25 4.570312-4.820312 8.136718-9.386719 9.390624l-27.589843 7.5625c-4.566407 1.253907-8.136719 4.820313-9.390626 9.390626l-7.5625 27.585937c-1.25 4.570313-4.820312 8.136719-9.386718 9.390625l-31.53125 8.644531c-2.246094.613281-4.292969 1.804688-5.941406 3.449219l-14.320313 14.324219c-6.875 6.871093-17.210937 8.925781-26.191406 5.203125l-51.078125-21.171875c-6.394532-2.648438-8.042969-10.945313-3.148438-15.839844l215.496094-215.496094zm0 0" fill="#e5ca61"/><path d="m237.898438 47.027344c-62.703126 62.707031-62.703126 164.367187 0 227.074218 62.707031 62.703126 164.367187 62.703126 227.074218 0 62.703125-62.703124 62.703125-164.367187 0-227.074218-62.707031-62.703125-164.367187-62.703125-227.074218 0zm97.070312 39.695312c24.9375-24.941406 65.371094-24.941406 90.308594 0 24.941406 24.9375 24.941406 65.371094 0 90.308594-24.9375 24.941406-65.371094 24.941406-90.308594 0-24.941406-24.9375-24.941406-65.371094 0-90.308594zm0 0" fill="#f9db69"/><path d="m464.972656 47.027344c-22.351562-22.351563-49.660156-36.730469-78.386718-43.144532 17.210937 7.761719 33.339843 18.703126 47.480468 32.84375 62.703125 62.703126 62.703125 164.367188 0 227.070313-40.351562 40.351563-96.832031 54.730469-148.6875 43.148437 59.101563 26.660157 131.03125 15.71875 179.59375-32.84375 62.703125-62.707031 62.703125-164.367187 0-227.074218zm0 0" fill="#e5ca61"/><g fill="#464c51"><path d="m338.492188 271.667969c-1.976563 0-3.953126-.753907-5.464844-2.261719-3.015625-3.019531-3.015625-7.910156.003906-10.929688l8.183594-8.183593c3.015625-3.015625 7.90625-3.015625 10.925781 0 3.015625 3.019531 3.015625 7.910156-.003906 10.929687l-8.183594 8.183594c-1.503906 1.507812-3.484375 2.261719-5.460937 2.261719zm0 0"/><path d="m248.058594 181.234375c-1.976563 0-3.957032-.753906-5.464844-2.265625-3.015625-3.015625-3.015625-7.90625 0-10.925781l8.183594-8.183594c3.019531-3.015625 7.910156-3.015625 10.929687 0 3.015625 3.015625 3.015625 7.910156-.003906 10.925781l-8.183594 8.183594c-1.507812 1.511719-3.484375 2.265625-5.460937 2.265625zm0 0"/><path d="m303.6875 237.085938c-7.472656 0-14.765625-3.050782-20.242188-8.53125-5.925781-5.925782-9.011718-13.972657-8.46875-22.078126.285157-4.257812 3.980469-7.476562 8.226563-7.191406 4.257813.289063 7.476563 3.972656 7.191406 8.226563-.246093 3.65625 1.203125 7.347656 3.972657 10.117187 2.773437 2.773438 6.464843 4.226563 10.121093 3.980469 4.257813-.289063 7.9375 2.933594 8.226563 7.1875.285156 4.257813-2.933594 7.941406-7.191406 8.226563-.613282.042968-1.226563.0625-1.835938.0625zm0 0"/></g><path d="m56.929688 434.042969c-1.976563 0-3.953126-.757813-5.464844-2.265625-3.015625-3.015625-3.015625-7.90625 0-10.925782l177.433594-177.433593c3.019531-3.019531 7.910156-3.019531 10.925781 0 3.019531 3.015625 3.019531 7.910156 0 10.925781l-177.429688 177.433594c-1.511719 1.507812-3.488281 2.265625-5.464843 2.265625zm0 0" fill="#f9db69"/></svg>