<svg id="Capa_1" enable-background="new 0 0 497 497" height="512" viewBox="0 0 497 497" width="512" xmlns="http://www.w3.org/2000/svg"><g><path d="m149.52 295.512-127.28 107.302c-2.493 1.733-4.874 3.696-7.096 5.918-20.192 20.192-20.192 52.931 0 73.123s52.931 20.192 73.123 0c2.222-2.222 4.185-4.604 5.918-7.096l107.303-127.28z" fill="#bd9cde"/><path d="m119.656 320.689c7.59 10.921 16.199 21.25 25.802 30.854 9.603 9.603 19.932 18.212 30.853 25.802l25.177-29.864-51.968-51.968z" fill="#996acc"/><circle cx="303.498" cy="193.502" fill="#ff89ca" r="193.502"/><circle cx="303.498" cy="193.502" fill="#83deff" r="140.061"/><path d="m234.46 292.54c-54.697-54.697-54.697-143.379 0-198.076 23.528-23.528 53.344-36.925 84.038-40.212-40.664-4.354-82.869 9.043-114.038 40.212-54.697 54.697-54.697 143.379 0 198.076 31.17 31.169 73.374 44.567 114.038 40.212-30.694-3.286-60.511-16.684-84.038-40.212z" fill="#00b4fd"/><g><g><path d="m245.701 263.476c-1.919 0-3.839-.732-5.303-2.197l-11.556-11.555c-2.929-2.929-2.929-7.678 0-10.607s7.678-2.929 10.606 0l11.556 11.555c2.929 2.929 2.929 7.678 0 10.607-1.464 1.464-3.383 2.197-5.303 2.197z" fill="#423e4f"/></g><g><path d="m365.971 143.205c-1.919 0-3.839-.732-5.303-2.197l-11.555-11.555c-2.929-2.929-2.929-7.678 0-10.607s7.678-2.929 10.606 0l11.555 11.555c2.929 2.929 2.929 7.678 0 10.607-1.464 1.465-3.384 2.197-5.303 2.197z" fill="#423e4f"/></g><g><path d="m291.687 218.921c-.853 0-1.706-.029-2.563-.088-4.132-.284-7.252-3.864-6.969-7.996.284-4.132 3.863-7.252 7.996-6.969 6.433.441 12.718-1.911 17.26-6.452 4.542-4.542 6.894-10.833 6.453-17.26-.284-4.132 2.836-7.712 6.969-7.996 4.124-.284 7.712 2.836 7.996 6.969.738 10.754-3.202 21.286-10.811 28.894-7.002 7.002-16.482 10.898-26.331 10.898z" fill="#423e4f"/></g></g></g></svg>