<?xml version="1.0" encoding="iso-8859-1"?>
<!-- Generator: Adobe Illustrator 19.0.0, SVG Export Plug-In . SVG Version: 6.00 Build 0)  -->
<svg version="1.1" id="Capa_1" xmlns="http://www.w3.org/2000/svg" xmlns:xlink="http://www.w3.org/1999/xlink" x="0px" y="0px"
	 viewBox="0 0 512.001 512.001" style="enable-background:new 0 0 512.001 512.001;" xml:space="preserve">
<path style="fill:#00A5C6;" d="M358.262,325.581H182.548l-9.702,60.568h194.556l7.92-39.776
	C377.464,335.612,369.233,325.581,358.262,325.581z"/>
<path style="fill:#EFEDEE;" d="M454.88,156.401c-5.388,0-10.594,0.762-15.536,2.156c-5.783-31.946-33.717-56.181-67.33-56.181
	c-4.071,0-8.052,0.376-11.927,1.057c-16.356-41.482-56.793-70.837-104.087-70.837s-87.731,29.354-104.087,70.837
	c-3.876-0.681-7.856-1.057-11.927-1.057c-33.613,0-61.546,24.236-67.33,56.181c-4.942-1.394-10.148-2.156-15.536-2.156
	C25.573,156.401,0,181.975,0,213.521s25.573,57.12,57.121,57.12h397.76c31.546,0,57.121-25.573,57.121-57.12
	C512,181.975,486.427,156.401,454.88,156.401z"/>
<path style="fill:#D4D2D3;" d="M256.001,32.595c-47.294,0-87.731,29.355-104.087,70.837c-3.876-0.682-7.856-1.057-11.927-1.057
	c-33.613,0-61.546,24.235-67.33,56.181c-4.942-1.395-10.148-2.156-15.536-2.156c-31.799,0-57.529,25.984-57.115,57.878
	c0.407,31.391,26.574,56.362,57.966,56.362h40.356c-31.547,0-57.121-25.573-57.121-57.12c0-31.547,25.573-57.121,57.121-57.121
	c0.054,0,0.107,0,0.162,0c8.699,0.024,16.508-5.041,19.997-13.009c10.571-24.144,34.663-41.016,62.707-41.016
	c0.04,0,0.081,0,0.123,0c7.037,0.013,13.571-3.711,16.848-9.937c15.655-29.752,44.327-51.579,78.44-57.933
	C269.924,33.261,263.041,32.595,256.001,32.595z"/>
<g>
	<path style="fill:#3A484A;" d="M211.882,115.575c-4.268,0-7.726-3.459-7.726-7.726v-7.985c0-4.267,3.458-7.726,7.726-7.726
		s7.726,3.459,7.726,7.726v7.985C219.608,112.116,216.149,115.575,211.882,115.575z"/>
	<path style="fill:#3A484A;" d="M300.119,115.575c-4.268,0-7.726-3.459-7.726-7.726v-7.985c0-4.267,3.458-7.726,7.726-7.726
		s7.726,3.459,7.726,7.726v7.985C307.846,112.116,304.387,115.575,300.119,115.575z"/>
	<path style="fill:#3A484A;" d="M256.001,119.838c-6.473,0-12.562-2.719-16.706-7.459c-2.809-3.213-2.481-8.094,0.731-10.902
		c3.213-2.808,8.094-2.482,10.902,0.731c1.209,1.384,3.059,2.177,5.073,2.177c2.014,0,3.863-0.793,5.073-2.177
		c2.807-3.213,7.689-3.541,10.902-0.731c3.212,2.808,3.541,7.689,0.731,10.902C268.563,117.119,262.473,119.838,256.001,119.838z"/>
</g>
<path style="fill:#3AC7B4;" d="M311.745,214.944l-50.432-44.373c-3.038-2.673-7.588-2.673-10.626,0l-50.432,44.373
	c-5.567,4.899-2.103,14.082,5.313,14.082h18.331v162.307h64.2V229.025h18.331C313.847,229.025,317.312,219.843,311.745,214.944z"/>
<path style="fill:#49C3E0;" d="M380.026,350.771H203.619c-7.356,0-13.905-4.652-16.328-11.597l-4.742-13.593
	c-1.959-5.615-7.255-9.377-13.202-9.377h-69.332c-9.129,0-15.81,8.607-13.545,17.451l34.057,132.951
	c1.93,7.532,8.716,12.799,16.491,12.799h218.78c7.775,0,14.562-5.267,16.491-12.799l24.23-94.588
	C399.276,361.251,391.143,350.771,380.026,350.771z"/>
<g>
</g>
<g>
</g>
<g>
</g>
<g>
</g>
<g>
</g>
<g>
</g>
<g>
</g>
<g>
</g>
<g>
</g>
<g>
</g>
<g>
</g>
<g>
</g>
<g>
</g>
<g>
</g>
<g>
</g>
</svg>
