<svg id="Capa_1" enable-background="new 0 0 512 512" height="512" viewBox="0 0 512 512" width="512" xmlns="http://www.w3.org/2000/svg"><g><path d="m46.041 369.531c-18.167-1.47-31.701-17.39-30.231-35.556s17.357-31.707 35.557-30.232c38.592 3.118 70.776-17.08 104.331-65.506 10.382-14.982 30.94-18.71 45.923-8.33 14.981 10.381 18.709 30.941 8.329 45.922-40.696 58.729-92.703 99.464-163.909 93.702z" fill="#6a95d6"/><path d="m79.687 301.51c-9.112 2.303-18.508 3.026-28.321 2.233-18.199-1.475-34.087 12.066-35.557 30.232-1.47 18.167 12.065 34.086 30.231 35.556 14.72 1.191 28.616.39 41.765-2.141z" fill="#ffd3bd"/><path d="m465.959 369.531c18.167-1.47 31.701-17.39 30.231-35.556s-17.357-31.707-35.557-30.232c-38.592 3.118-70.776-17.08-104.331-65.506-10.382-14.982-30.94-18.71-45.923-8.33-14.981 10.381-18.709 30.941-8.329 45.922 40.696 58.729 92.703 99.464 163.909 93.702z" fill="#6a95d6"/><path d="m432.313 301.51c9.112 2.303 18.509 3.026 28.321 2.233 18.199-1.475 34.087 12.066 35.557 30.232 1.47 18.167-12.065 34.086-30.231 35.556-14.72 1.191-28.616.39-41.765-2.141z" fill="#ffd3bd"/><ellipse cx="254.405" cy="335.791" fill="#8daee1" rx="116.342" ry="123.115"/><path d="m169.53 490.274c-6.234-17.127 2.598-36.065 19.725-42.298l150.18-54.662c17.128-6.233 36.064 2.598 42.299 19.724 6.234 17.127-2.598 36.065-19.725 42.298l-150.18 54.662c-17.193 6.257-36.087-2.659-42.299-19.724z" fill="#7acdf9"/><path d="m232.849 432.109-43.594 15.867c-17.127 6.233-25.959 25.171-19.725 42.298 6.212 17.065 25.106 25.981 42.299 19.724l45.766-16.657z" fill="#ffd3bd"/><path d="m342.47 490.274c6.234-17.127-2.598-36.065-19.725-42.298l-150.18-54.662c-17.128-6.233-36.064 2.598-42.299 19.724-6.234 17.127 2.598 36.065 19.725 42.298l150.18 54.662c17.193 6.257 36.087-2.659 42.299-19.724z" fill="#a2ddfd"/><path d="m279.151 432.109 43.594 15.867c17.127 6.233 25.959 25.171 19.725 42.298-6.212 17.065-25.106 25.981-42.299 19.724l-45.766-16.657z" fill="#ffd3bd"/><ellipse cx="91.27" cy="148.523" fill="#ffd3bd" rx="45.585" ry="45.585" transform="matrix(.973 -.23 .23 .973 -31.682 24.943)"/><ellipse cx="420.73" cy="148.523" fill="#ffbe9d" rx="45.585" ry="45.585" transform="matrix(.23 -.973 .973 .23 179.516 523.874)"/><ellipse cx="256" cy="148.523" fill="#ffd3bd" rx="163.522" ry="148.523"/><path d="m324.176 283.552c-177.666-4.31-186.95-192.645-143.764-266.755-52.258 24.789-87.934 74.47-87.934 131.726 0 82.027 73.211 148.523 163.522 148.523 24.334 0 47.423-4.835 68.176-13.494z" fill="#ffbe9d"/><g><g fill="#e7889d"><ellipse cx="171.691" cy="169.215" rx="31.109" ry="24.773"/><ellipse cx="340.31" cy="169.215" rx="31.109" ry="24.773"/></g><g fill="#4e5660"><path d="m189.82 151.684c-8.318 0-16.229-3.603-21.705-9.885-2.721-3.122-2.396-7.86.727-10.581 3.122-2.722 7.859-2.397 10.582.726 2.625 3.013 6.415 4.74 10.396 4.74 3.982 0 7.771-1.728 10.396-4.74 2.721-3.124 7.459-3.449 10.581-.728 3.123 2.721 3.449 7.459.728 10.582-5.473 6.283-13.384 9.886-21.705 9.886z"/><path d="m322.18 151.684c-8.32 0-16.231-3.603-21.705-9.885-2.722-3.123-2.396-7.861.727-10.582 3.122-2.72 7.86-2.395 10.581.728 2.625 3.012 6.414 4.74 10.396 4.74 3.981 0 7.772-1.728 10.397-4.74 2.722-3.122 7.46-3.448 10.582-.726 3.123 2.721 3.447 7.459.727 10.581-5.476 6.281-13.387 9.884-21.705 9.884z"/><ellipse cx="256" cy="158.781" rx="12.41" ry="13.235"/></g></g><path d="m410.881 100.761c-21.897-58.596-82.967-100.761-154.881-100.761s-132.984 42.165-154.881 100.761c55.329 2.762 136.986-16.394 154.881-46.956 17.895 30.562 99.552 49.718 154.881 46.956z" fill="#4e5660"/><path d="m159.129 97.059c1.599-31.232 9.482-60.015 21.286-80.268-37.01 17.555-65.703 47.594-79.296 83.97 17.635.88 37.944-.469 58.01-3.702z" fill="#383c43"/></g></svg>